<?xml version="1.0" encoding="utf-8"?>
<!-- Generator: Adobe Illustrator 20.1.0, SVG Export Plug-In . SVG Version: 6.00 Build 0)  -->
<svg version="1.1" id="Capa_1" xmlns="http://www.w3.org/2000/svg" xmlns:xlink="http://www.w3.org/1999/xlink" x="0px" y="0px"
	 viewBox="0 0 250 150" style="enable-background:new 0 0 250 150;" xml:space="preserve">
<style type="text/css">
	.st0{fill:#97BF1E;}
	.st1{fill:#F08516;}
</style>
<g>
	<path class="st0" d="M104.9,124.2c0,0.2,0,0.4,0,0.7c0,4.1,0,8.2,0,12.2c0,0.2,0,0.3,0,0.5c0,0.6,0,0.7-0.5,0.7c-1.5,0-3.1,0-4.6,0
		c-0.5,0-0.5,0-0.5-0.6c0-5.7,0-11.5,0-17.2c0-0.6,0-0.6,0.5-0.6c2.7,0,5.4,0,8.1,0c0.4,0,0.5,0.2,0.7,0.5c0.9,2.2,1.9,4.4,2.8,6.6
		c0.7,1.7,1.5,3.4,2.2,5.1c0,0.1,0.1,0.1,0.1,0.2c0.4-0.6,0.6-1.3,0.9-2c1.2-2.8,2.4-5.7,3.6-8.5c0.2-0.5,0.4-1,0.6-1.5
		c0.1-0.4,0.3-0.5,0.6-0.5c1.5,0,2.9,0,4.4,0c1.3,0,2.5,0,3.8,0c0.5,0,0.5,0,0.5,0.6c0,5.7,0,11.4,0,17.1c0,0.7,0,0.7-0.5,0.7
		c-1.5,0-2.9,0-4.4,0c-0.6,0-0.6,0-0.6-0.8c0-3.9,0-7.7,0-11.6c0-0.6,0-1.1,0-1.7c-0.2-0.1-0.2,0.2-0.3,0.3c-1.5,3.7-3,7.4-4.5,11.1
		c-0.3,0.7-0.6,1.4-0.9,2.2c-0.1,0.3-0.3,0.4-0.5,0.4c-1.7,0-3.4,0-5.1,0c-0.3,0-0.4-0.1-0.5-0.4c-1.7-4.1-3.3-8.3-5-12.4
		c-0.2-0.4-0.3-0.8-0.5-1.2C104.9,124.1,104.9,124.1,104.9,124.2z"/>
	<path class="st0" d="M143.5,132.2c0.6-0.1,1-0.1,1.5-0.2c1.2-0.1,2.4-0.1,3.6-0.2c0.3,0,0.5,0,0.6,0.4c0.5,1.3,1.4,2,2.5,2.5
		c1.4,0.5,2.8,0.6,4.2,0.5c0.9,0,1.7-0.1,2.6-0.3c0.5-0.1,1-0.4,1.5-0.7c0.3-0.1,0.5-0.4,0.6-0.6c0.4-0.6,0.4-1.3-0.2-1.8
		c-0.4-0.3-0.9-0.5-1.3-0.6c-1.3-0.4-2.5-0.5-3.8-0.7c-2.5-0.4-4.9-0.7-7.3-1.6c-0.8-0.3-1.5-0.7-2.1-1.3c-1.8-1.5-1.8-3.9,0-5.4
		c1.2-1,2.7-1.5,4.1-1.8c2.7-0.6,5.5-0.6,8.2-0.3c1.8,0.2,3.5,0.5,5.1,1.5c0.9,0.5,1.8,1.3,2.3,2.5c0,0.1,0.1,0.2,0.1,0.3
		c0.3,1,0.3,1.1-0.6,1.1c-1.5,0-3,0.1-4.5,0.1c-0.4,0-0.6-0.1-0.8-0.6c-0.4-0.9-1.1-1.4-1.8-1.6c-1.3-0.4-2.6-0.4-3.9-0.4
		c-0.9,0-1.7,0.1-2.6,0.4c-0.3,0.1-0.7,0.2-1,0.4c-0.3,0.2-0.6,0.4-0.6,0.9c0,0.5,0.3,0.7,0.6,0.9c0.8,0.5,1.7,0.6,2.5,0.8
		c1.8,0.4,3.6,0.6,5.4,0.9c1.6,0.3,3.1,0.6,4.7,1.2c1,0.4,2,1,2.8,1.9c1,1.2,1.1,3,0.2,4.3c-0.5,0.7-1,1.3-1.7,1.7
		c-1.5,1-3,1.4-4.7,1.6c-2.3,0.4-4.7,0.4-7,0.2c-2-0.1-4-0.5-5.9-1.4c-1-0.5-1.9-1.2-2.6-2.3C143.9,133.8,143.6,133.1,143.5,132.2z"
		/>
	<path class="st0" d="M189.6,138.2c0.5-0.9,1-1.6,1.4-2.3c3.3-5.2,6.5-10.3,9.7-15.5c0.3-0.4,0.6-0.6,1-0.6c1.7,0,3.5,0,5.2,0
		c0.4,0,0.6,0.1,0.8,0.5c1.8,2.8,3.6,5.5,5.4,8.2c2,3.1,4,6.2,6,9.3c0.1,0.1,0.1,0.2,0.1,0.3c-0.1,0.2-0.2,0.1-0.3,0.1
		c-1.8,0-3.7,0-5.5,0c-0.4,0-0.7-0.2-0.9-0.6c-0.6-1-1.3-2.1-1.9-3.1c-0.2-0.4-0.5-0.5-0.9-0.5c-3.6,0-7.2,0-10.8,0
		c-0.4,0-0.7,0.2-0.9,0.6c-0.6,1.1-1.3,2.1-1.9,3.2c-0.1,0.2-0.3,0.4-0.5,0.4C193.7,138.2,191.7,138.2,189.6,138.2z M208.4,130.9
		c-1.4-2.3-2.7-4.5-4.1-6.8c-1.3,2.3-2.6,4.5-4,6.8C203,130.9,205.6,130.9,208.4,130.9z"/>
	<path class="st0" d="M175.2,126.5c1.1-1,2.3-1.5,3.5-1.8c1.7-0.4,3.4-0.5,5.1-0.2c1.5,0.2,3,0.7,4.3,1.7c0.4,0.3,0.8,0.7,1.2,1.1
		c1.9,2.1,1.7,6-0.1,8c-1.3,1.4-2.8,2.1-4.4,2.5c-2.1,0.5-4.3,0.6-6.4-0.1c-0.8-0.2-1.6-0.6-2.3-1.1c-0.2-0.1-0.3-0.3-0.6-0.3
		c-0.1,0.2-0.1,0.4-0.1,0.6c0,1.8,0,3.5,0,5.3c0,0.6,0,0.6-0.5,0.6c-1.5,0-3.1,0-4.6,0c-0.6,0-0.5,0-0.5-0.7c0-4.6,0-9.1,0-13.7
		c0-1.1,0-2.2,0-3.3c0-0.5,0-0.5,0.4-0.5c1.5,0,2.9,0,4.4,0c0.3,0,0.4,0.1,0.4,0.5C175.2,125.5,175.2,125.9,175.2,126.5z
		 M180.1,127.1c-1.1,0-2.2,0.2-3.2,0.9c-1,0.6-1.5,1.7-1.5,3c0,1.4,0.4,2.6,1.4,3.3c2.1,1.4,4.2,1.4,6.4,0.3
		c0.9-0.5,1.4-1.3,1.6-2.6c0.2-1.9-0.2-3.5-1.8-4.3C182.1,127.2,181.2,127.1,180.1,127.1z"/>
	<path class="st0" d="M83.6,119.8c3.7,0,7.3,0,11,0c0.1,0,0.2,0,0.2,0c0.6,0,0.6-0.1,0.6,0.7c0,0.7,0,1.3,0,2c0,0.3-0.1,0.4-0.3,0.4
		c-0.2,0-0.3,0-0.5,0c-2.4,0-4.8,0-7.2,0c-0.2,0-0.3,0-0.5,0c-0.2,0-0.3,0.1-0.3,0.4c0,0.2,0,0.4,0,0.6c0,4.4,0,8.8,0,13.3
		c0,0.1,0,0.3,0,0.4c0,0.7,0,0.7-0.5,0.7c-1.6,0-3.3,0-4.9,0c-0.6,0-0.6,0-0.6-0.7c0-4.5,0-9,0-13.6c0-1.1,0-1-0.8-1
		c-2.4,0-4.8,0-7.2,0c-0.2,0-0.3,0-0.5,0c-0.2,0-0.3-0.1-0.3-0.4c0-0.8,0-1.6,0-2.4c0-0.2,0.1-0.4,0.3-0.4c0.2,0,0.3,0,0.5,0
		C76.2,119.8,79.9,119.8,83.6,119.8z"/>
	<g>
		<path class="st1" d="M74.9,110.8H93c-0.2-5-0.3-11.7-0.1-18.9c-6-0.3-11.7-0.8-16.6-1.4C75.1,102.1,74.9,110.8,74.9,110.8z"/>
		<path class="st1" d="M103.1,92.3c0.3,10.4,1.3,18.5,1.3,18.5h18.4c-1.2-6.2-2.3-12.7-3.3-19C114.2,92.2,108.6,92.3,103.1,92.3z"/>
		<path class="st0" d="M141.9,62.2c2.5,2,5.1,4,7.6,5.8c-0.9-3.1-2.5-6.4-4.5-10.2c-0.2-0.4-0.4-0.8-0.6-1.2c-2-1.4-4-2.8-6-4.2
			C140.3,56.5,141.3,60,141.9,62.2z"/>
		<path class="st0" d="M113.6,25.4c6.1,3.3,10.9,7.3,14.7,11.5c2.7,1.8,5.5,3.8,8.3,5.9c-7.1-11.9-15.2-23.1-23-28.2
			C102.5,7.4,95.2,8.9,86,14.7C76.8,20.5,64.4,42.2,58.5,62c-2.6,8.5-4.5,14.4-6,20.2c5.5,0.5,11.5,0.9,17.6,1.2
			c0.9-7,2.1-14.4,3.7-20.8C78.6,43.3,88.2,11.7,113.6,25.4z"/>
		<path class="st1" d="M137.9,43.8c-0.4-0.3-0.9-0.7-1.3-1c-2.8-2.1-5.6-4.1-8.3-5.9c-9.1-6-17.6-9.8-25.5-8.5
			c-4.1,0.6-7.6,3-11.1,7c-8.2,9.1-12.4,30.7-14.6,48.4c5.4,0.2,10.9,0.2,16.2,0.2c0.9-13,3-26.5,7.9-35.2
			c8.7-15.5,20.2-7.8,29.9-1.3c2,1.3,4.6,3.1,7.3,5c2,1.4,4,2.8,6,4.2c5.6,4,10.5,7.5,10.5,7.5c49.7,30.8,73.6,6.5,73.6,6.5
			C188,86.6,153.7,55.9,137.9,43.8z"/>
		<path class="st1" d="M155,71.7c-1.8-1.1-3.6-2.4-5.5-3.7c-2.5-1.8-5.1-3.8-7.6-5.8c-9.7-7.7-19-15.4-24.7-15.1
			c-5.2,0.3-7.6,3.6-9.7,8.5c-3.2,7.5-4.3,18.1-4.5,28c3.6-0.2,7.1-0.5,10.5-0.9c1.7-0.2,3.2-0.4,4.7-0.7
			c-0.8-8.3-0.9-15.1,0.6-18.6c3.4-8,14.8,0.8,22.2,7.6c0,0,0.1,0.1,0.1,0.1c2.8,2.5,5.8,4.8,8.8,6.9c9.7,6.5,19.4,10.4,19.4,10.4
			c31.5,12.1,49.9-7.5,49.9-7.5C189.5,94.4,162.2,76.3,155,71.7z"/>
		<path class="st0" d="M141.2,71.1c-2.4,3.8-8.3,8.4-22.9,10.8c-1.5,0.2-3,0.5-4.7,0.7c-3.4,0.4-6.9,0.7-10.5,0.9
			c-3.2,0.2-6.5,0.3-9.8,0.4c-5.3,0.1-10.8,0-16.2-0.2c-2.4-0.1-4.7-0.2-7-0.3c-0.3,2.1-0.5,4.2-0.7,6.3c0,0,0,0,0,0
			c2,0.2,4.4,0.5,7,0.8c4.8,0.5,10.5,1,16.6,1.4c3.3,0.2,6.8,0.3,10.2,0.4c5.5,0.1,11.1-0.1,16.4-0.5c5.3-0.5,10.4-1.3,14.8-2.5
			c9.4-2.7,14.3-6.3,15.8-11.2C147,76,144,73.7,141.2,71.1z"/>
		<g>
			<path class="st0" d="M21.7,78.6c0,0,15.3,4.4,29.7,7.7c0.3-1.4,0.7-2.7,1-4C37.4,80.9,25.5,79.3,21.7,78.6z"/>
			<path class="st0" d="M47.4,110.8l20.3,0c0,0,0.3-9.4,1.6-21c-4.6-0.6-11.1-1.9-17.9-3.5C49.8,92.7,48.6,99.9,47.4,110.8z"/>
		</g>
	</g>
	<path class="st0" d="M43.6,138.2c0.5-0.9,1-1.6,1.4-2.3c3.3-5.2,6.5-10.3,9.7-15.5c0.3-0.4,0.6-0.6,1-0.6c1.7,0,3.5,0,5.2,0
		c0.4,0,0.6,0.1,0.8,0.5c1.8,2.8,3.6,5.5,5.4,8.2c2,3.1,4,6.2,6,9.3c0.1,0.1,0.1,0.2,0.1,0.3c-0.1,0.2-0.2,0.1-0.3,0.1
		c-1.8,0-3.7,0-5.5,0c-0.4,0-0.7-0.2-0.9-0.6c-0.6-1-1.3-2.1-1.9-3.1c-0.2-0.4-0.5-0.5-0.9-0.5c-3.6,0-7.2,0-10.8,0
		c-0.4,0-0.7,0.2-0.9,0.6c-0.6,1.1-1.3,2.1-1.9,3.2c-0.1,0.2-0.3,0.4-0.5,0.4C47.8,138.2,45.8,138.2,43.6,138.2z M62.4,130.9
		c-1.4-2.3-2.7-4.5-4.1-6.8c-1.3,2.3-2.6,4.5-4,6.8C57.1,130.9,59.7,130.9,62.4,130.9z"/>
	<g>
		<path class="st1" d="M222.2,108.3c-3.7,0-6.6,3-6.6,6.6c0,3.7,3,6.6,6.6,6.6s6.6-3,6.6-6.6C228.9,111.2,225.9,108.3,222.2,108.3
			L222.2,108.3z M222.2,119.7c-2.7,0-4.8-2.2-4.8-4.8c0-2.7,2.2-4.8,4.8-4.8s4.8,2.2,4.8,4.8C227,117.6,224.9,119.7,222.2,119.7
			L222.2,119.7z M224.6,114c0-1.3-0.9-2.2-2.5-2.2h-2.2v6.1h1.3v-1.7h1c0.1,0,0.1,0,0.2,0l1.2,1.7h1.6l-1.5-2.1
			C224.3,115.5,224.6,114.8,224.6,114L224.6,114z M222.2,115h-1v-1.8h1c1.2,0,1.2,0.7,1.2,0.9C223.3,114.3,223.3,115,222.2,115
			L222.2,115z M222.2,115"/>
	</g>
</g>
</svg>
